# Blender 4.2.0
# www.blender.org
mtllib player.mtl
o Cube
v -0.500000 -0.788287 0.266623
v -0.500000 0.788287 0.266623
v -0.500000 -0.788287 -0.266623
v -0.500000 0.788287 -0.266623
v 0.500000 -0.788287 0.266623
v 0.500000 0.788287 0.266623
v 0.500000 -0.788287 -0.266623
v 0.500000 0.788287 -0.266623
v -0.500000 -2.356187 -0.266623
v -0.500000 -2.356187 0.266623
v 0.500000 -2.356187 -0.266623
v 0.500000 -2.356187 0.266623
v -0.890046 -0.788287 -0.266623
v -0.890046 -0.788287 0.266623
v -0.890046 0.788287 0.266623
v -0.890046 0.788287 -0.266623
v 0.855288 0.788287 -0.266623
v 0.855288 -0.788287 -0.266623
v 0.855288 -0.788287 0.266623
v 0.855288 0.788287 0.266623
v -0.500000 1.686404 0.266623
v -0.500000 1.686404 -0.266623
v 0.500000 1.686404 -0.266623
v 0.500000 1.686404 0.266623
v 0.500000 0.788287 0.479926
v -0.500000 0.788287 0.479926
v 0.500000 1.686404 0.479926
v -0.500000 1.686404 0.479926
v -0.500000 0.788287 -0.468543
v 0.500000 0.788287 -0.468543
v -0.500000 1.686404 -0.468543
v 0.500000 1.686404 -0.468543
vn -0.0000 1.0000 -0.0000
vn -0.0000 -0.0000 -1.0000
vn -0.0000 -0.0000 1.0000
vn -0.0000 -1.0000 -0.0000
vn -1.0000 -0.0000 -0.0000
vn 1.0000 -0.0000 -0.0000
vt 0.875000 0.750000
vt 0.875000 0.500000
vt 0.375000 0.250000
vt 0.625000 0.250000
vt 0.625000 0.500000
vt 0.375000 0.500000
vt 0.625000 0.750000
vt 0.375000 0.750000
vt 0.625000 1.000000
vt 0.375000 1.000000
vt 0.125000 0.500000
vt 0.125000 0.750000
vt 0.375000 0.000000
vt 0.625000 0.000000
s 0
f 2/1/1 4/2/1 16/2/1 15/1/1
f 3/3/2 4/4/2 8/5/2 7/6/2
f 8/5/1 6/7/1 20/7/1 17/5/1
f 5/8/3 6/7/3 2/9/3 1/10/3
f 5/8/3 1/10/3 10/10/3 12/8/3
f 2/9/4 6/7/4 25/7/4 26/9/4
f 9/11/4 11/6/4 12/8/4 10/12/4
f 3/3/2 7/6/2 11/6/2 9/3/2
f 1/13/5 3/3/5 9/3/5 10/13/5
f 7/6/6 5/8/6 12/8/6 11/6/6
f 14/13/5 15/14/5 16/4/5 13/3/5
f 3/3/4 1/13/4 14/13/4 13/3/4
f 4/4/2 3/3/2 13/3/2 16/4/2
f 1/10/3 2/9/3 15/9/3 14/10/3
f 18/6/6 17/5/6 20/7/6 19/8/6
f 7/6/2 8/5/2 17/5/2 18/6/2
f 6/7/3 5/8/3 19/8/3 20/7/3
f 5/8/4 7/6/4 18/6/4 19/8/4
f 23/5/1 22/2/1 21/1/1 24/7/1
f 4/2/5 22/2/5 31/2/5 29/2/5
f 6/7/6 8/5/6 23/5/6 24/7/6
f 4/2/5 2/1/5 21/1/5 22/2/5
f 26/9/3 25/7/3 27/7/3 28/9/3
f 6/7/6 24/7/6 27/7/6 25/7/6
f 21/1/5 2/1/5 26/1/5 28/1/5
f 24/7/1 21/1/1 28/1/1 27/7/1
f 30/5/2 29/4/2 31/4/2 32/5/2
f 8/5/4 4/4/4 29/4/4 30/5/4
f 23/5/6 8/5/6 30/5/6 32/5/6
f 22/2/1 23/5/1 32/5/1 31/2/1
